#!OML:ASF F:\VICON\USERDATA\INSTALL\Justin_Nancy\Justin_Nancy.ASF
:FULLY-SPECIFIED
:DEGREES
167
root -7.61673 16.4497 10.3367 -135.255 -78.985 141.309
lowerback 13.9398 2.60079 -2.85471
upperback 0.507261 2.77286 -1.95901
thorax -7.32603 1.37878 -1.02134
lowerneck -23.378 -4.28999 -6.88483
upperneck 17.926 -5.41661 7.77503
head 9.95808 -2.08261 3.04585
rclavicle -2.46493e-014 3.97569e-016
rhumerus -48.2575 4.04944 -94.3443
rradius 100.673
rwrist -17.3893
rhand -13.7985 24.7186
rfingers 7.12502
rthumb 12.3234 -4.89821
lclavicle -2.46493e-014 3.97569e-016
lhumerus -35.9697 -6.09044 85.9107
lradius 126.071
lwrist 31.3532
lhand -10.5243 10.6531
lfingers 7.12502
lthumb 15.4787 40.0534
rfemur -25.9227 -2.51185 17.4587
rtibia 88.4973
rfoot -2.80296 1.50035
rtoes 2.20397
lfemur -17.4906 -2.074 -21.1142
ltibia 45.155
lfoot -25.2081 1.20871
ltoes -21.4305
168
root -7.91886 16.4603 10.3843 -134.081 -78.9126 140.156
lowerback 14.2482 2.08438 -2.50957
upperback 0.21496 2.09191 -2.33607
thorax -7.78097 1.02994 -1.50089
lowerneck -23.5233 -3.8334 -6.62661
upperneck 18.5391 -4.92258 7.81108
head 10.1568 -1.82786 3.10295
rclavicle 1.19271e-014 -6.36111e-015
rhumerus -49.2791 2.95596 -94.9399
rradius 100.799
rwrist -16.4767
rhand -14.9674 25.3438
rfingers 7.12502
rthumb 11.1962 -4.3375
lclavicle 1.19271e-014 -6.36111e-015
lhumerus -35.4427 -5.36727 84.9767
lradius 126.198
lwrist 31.1566
lhand -10.5811 11.1141
lfingers 7.12502
lthumb 15.424 40.5186
rfemur -28.0653 -3.7602 17.3988
rtibia 88.6062
rfoot -3.91905 1.7449
rtoes -1.06414
lfemur -16.0238 -2.61771 -21.8724
ltibia 44.4709
lfoot -25.0969 2.06757
ltoes -22.2834
169
root -8.22547 16.4833 10.4188 -134.077 -79.0798 140.067
lowerback 14.6371 1.53899 -1.66856
upperback 0.00258681 1.43704 -2.88099
thorax -8.1965 0.665283 -2.44268
lowerneck -23.6283 -3.29005 -5.6211
upperneck 18.9848 -4.52252 7.66958
head 10.276 -1.58524 2.95534
rclavicle 4.67144e-015 -3.77691e-015
rhumerus -50.3462 1.98013 -95.6248
rradius 101.191
rwrist -16.4694
rhand -14.4092 24.6667
rfingers 7.12502
rthumb 11.7345 -4.98462
lclavicle 4.67144e-015 -3.77691e-015
lhumerus -35.0859 -5.04582 83.4439
lradius 126.48
lwrist 31.4526
lhand -11.2805 10.3294
lfingers 7.12502
lthumb 14.7503 39.7845
rfemur -29.8951 -4.87571 17.7351
rtibia 88.2326
rfoot -5.0742 1.92708
rtoes -2.61951
lfemur -14.434 -3.30925 -22.2683
ltibia 43.8106
lfoot -24.8277 2.96908
ltoes -23.6857
170
root -8.53211 16.5163 10.4413 -134.309 -79.1747 140.261
lowerback 14.0652 1.85153 -4.04134
upperback 0.381572 1.67917 -0.86373
thorax -7.59168 0.919263 1.02515
lowerneck -23.7822 -3.38693 -7.02235
upperneck 18.8479 -3.7624 6.25244
head 10.1875 -1.49963 2.79516
rclavicle 4.77083e-015 -1.59028e-015
rhumerus -50.9526 2.78997 -92.0069
rradius 101.973
rwrist -17.5566
rhand -13.506 24.1303
rfingers 7.12502
rthumb 12.6054 -5.46939
lclavicle 4.77083e-015 -1.59028e-015
lhumerus -34.1693 -3.7217 86.7995
lradius 126.575
lwrist 30.7541
lhand -11.9213 10.1407
lfingers 7.12502
lthumb 14.1328 39.64
rfemur -31.6718 -5.73984 18.2364
rtibia 87.4611
rfoot -6.17882 1.99418
rtoes -5.1518
lfemur -12.9059 -3.90797 -22.6116
ltibia 43.1511
lfoot -24.2525 3.41976
ltoes -24.3912
171
root -8.83943 16.564 10.4593 -136.338 -79.435 142.193
lowerback 14.2287 1.63243 -4.25282
upperback 0.410211 1.39511 -0.295216
thorax -7.65834 0.802578 1.80636
lowerneck -24.0705 -3.18297 -7.24028
upperneck 19.0671 -3.31203 5.94553
head 10.2817 -1.34188 2.79448
rclavicle 3.43897e-014 -3.10104e-014
rhumerus -51.7625 2.85025 -91.0683
rradius 102.46
rwrist -17.9827
rhand -12.8976 24.1647
rfingers 7.12502
rthumb 13.192 -5.39791
lclavicle 3.43897e-014 -3.10104e-014
lhumerus -33.7686 -2.9862 87.6068
lradius 126.873
lwrist 30.5293
lhand -11.3897 10.3716
lfingers 7.12502
lthumb 14.6451 39.8344
rfemur -33.1997 -6.11955 19.2375
rtibia 86.2476
rfoot -7.07697 1.65014
rtoes -6.64343
lfemur -11.3261 -4.16404 -22.526
ltibia 42.5241
lfoot -23.4662 3.41783
ltoes -24.4683
172
root -9.14951 16.6176 10.4627 -138.2 -79.3703 144.033
lowerback 14.2293 1.46936 -5.10263
upperback 0.434171 1.1015 0.435381
thorax -7.64734 0.706517 3.13044
lowerneck -24.346 -2.90622 -7.60742
upperneck 19.3443 -2.69796 5.60451
head 10.3853 -1.12785 2.83332
rclavicle 1.25234e-014 2.46493e-014
rhumerus -52.5079 3.41728 -89.9421
rradius 102.881
rwrist -18.0336
rhand -12.2056 24.1575
rfingers 7.12502
rthumb 13.8588 -5.3608
lclavicle 1.25234e-014 2.46493e-014
lhumerus -33.5332 -1.83567 88.8427
lradius 127.109
lwrist 30.1567
lhand -10.7069 10.2768
lfingers 7.12502
lthumb 15.3028 39.6906
rfemur -34.7283 -6.14707 19.9539
rtibia 84.7323
rfoot -7.76966 1.64668
rtoes -5.52194
lfemur -9.82671 -4.09329 -22.6307
ltibia 41.8544
lfoot -22.1853 3.90464
ltoes -25.8104
173
root -9.46738 16.6777 10.4613 -138.947 -79.0355 144.838
lowerback 14.0668 1.43752 -6.14258
upperback 0.458929 0.943456 0.955643
thorax -7.5443 0.675272 4.31514
lowerneck -24.3989 -2.71321 -7.60698
upperneck 19.2457 -2.29128 5.09213
head 10.3219 -1.00279 2.71038
rclavicle -1.47101e-014 1.59028e-015
rhumerus -53.2277 3.51298 -88.9326
rradius 103.319
rwrist -17.7799
rhand -12.6384 24.2243
rfingers 7.12502
rthumb 13.4417 -5.32197
lclavicle -1.47101e-014 1.59028e-015
lhumerus -33.391 -1.03592 90.2096
lradius 127.4
lwrist 29.9348
lhand -10.6528 10.2825
lfingers 7.12502
lthumb 15.3549 39.6924
rfemur -36.1001 -5.84155 20.2965
rtibia 82.8359
rfoot -8.58537 1.43293
rtoes -5.3403
lfemur -8.39026 -4.00854 -23.0668
ltibia 41.1362
lfoot -21.1025 2.41957
ltoes -26.3718
174
root -9.7996 16.7559 10.4696 -139.131 -78.9954 145.129
lowerback 13.8945 1.14901 -6.39647
upperback 0.441377 0.55111 1.19196
thorax -7.42398 0.495906 4.79571
lowerneck -24.2734 -2.56001 -7.37211
upperneck 18.7903 -2.03636 4.60398
head 10.1086 -0.923532 2.52909
rclavicle 4.57205e-015 -7.15625e-015
rhumerus -53.8407 3.42103 -88.4415
rradius 103.602
rwrist -17.4535
rhand -13.0267 24.0632
rfingers 7.12502
rthumb 13.0674 -5.50741
lclavicle 4.57205e-015 -7.15625e-015
lhumerus -33.3947 -0.250282 90.5554
lradius 127.867
lwrist 30.6522
lhand -10.224 10.7817
lfingers 7.12502
lthumb 15.7679 40.1594
rfemur -37.1564 -5.55795 20.671
rtibia 80.479
rfoot -9.39243 0.792979
rtoes -4.86424
lfemur -7.01759 -4.39918 -23.4293
ltibia 40.3171
lfoot -19.3473 1.65705
ltoes -26.0709
175
root -10.1366 16.8462 10.477 -140.566 -79.0083 146.669
lowerback 13.7401 0.677361 -6.38453
upperback 0.449989 -0.0378667 1.51155
thorax -7.2497 0.209031 5.25114
lowerneck -24.4011 -2.19811 -7.40156
upperneck 18.5339 -1.43039 4.2925
head 9.99621 -0.679753 2.51288
rclavicle -6.75868e-015 1.19271e-014
rhumerus -54.2924 3.99235 -87.9955
rradius 103.818
rwrist -17.9614
rhand -11.8255 23.7329
rfingers 7.12502
rthumb 14.2252 -5.75997
lclavicle -6.75868e-015 1.19271e-014
lhumerus -33.553 0.944456 90.3644
lradius 128.398
lwrist 31.599
lhand -9.63944 11.2398
lfingers 7.12502
lthumb 16.3308 40.5722
rfemur -38.0862 -5.22676 21.292
rtibia 77.7192
rfoot -9.96246 -0.0436378
rtoes -5.54693
lfemur -5.6343 -4.64066 -23.5605
ltibia 39.4255
lfoot -17.2176 1.38549
ltoes -26.3499
176
root -10.4782 16.9473 10.4792 -141.689 -78.981 148.003
lowerback 13.4567 0.295706 -6.22918
upperback 0.436638 -0.495208 1.58836
thorax -7.04103 -0.0245571 5.32922
lowerneck -24.6466 -1.89566 -7.1927
upperneck 18.5542 -1.04322 4.19136
head 10.0189 -0.496238 2.50351
rclavicle 2.26615e-014 -3.97569e-015
rhumerus -54.7993 4.20773 -87.6712
rradius 104.155
rwrist -19.4847
rhand -10.1586 23.5445
rfingers 7.12502
rthumb 15.831 -5.82822
lclavicle 2.26615e-014 -3.97569e-015
lhumerus -33.7534 1.43829 90.1452
lradius 128.791
lwrist 31.847
lhand -10.0969 11.244
lfingers 7.12502
lthumb 15.8903 40.612
rfemur -39.0486 -4.9295 21.7975
rtibia 74.6309
rfoot -10.1372 -0.658818
rtoes -5.58771
lfemur -4.43568 -4.56111 -23.6667
ltibia 38.478
lfoot -14.7458 1.05692
ltoes -27.8246
177
root -10.8252 17.0572 10.4778 -143.358 -79.0394 149.869
lowerback 13.2505 0.0880044 -5.67578
upperback 0.358308 -0.683615 1.43257
thorax -6.98958 -0.13646 4.87697
lowerneck -24.551 -1.72957 -6.6231
upperneck 18.3875 -1.00117 4.09992
head 9.93523 -0.444497 2.3816
rclavicle 1.64991e-014 -8.74653e-015
rhumerus -55.4755 3.67985 -87.6998
rradius 104.301
rwrist -20.1843
rhand -9.83781 23.4632
rfingers 7.12502
rthumb 16.1398 -5.88481
lclavicle 1.64991e-014 -8.74653e-015
lhumerus -34.0894 1.0327 89.8605
lradius 129.008
lwrist 31.5221
lhand -11.3978 10.4448
lfingers 7.12502
lthumb 14.6373 39.9082
rfemur -39.6736 -4.48873 22.3743
rtibia 71.1551
rfoot -10.38 -1.15503
rtoes -4.79971
lfemur -3.23852 -4.6113 -23.6044
ltibia 37.481
lfoot -11.9778 0.452801
ltoes -28.3609
178
root -11.177 17.1665 10.4759 -145.746 -79.1406 152.431
lowerback 13.0396 -0.11116 -5.25563
upperback 0.248947 -0.859013 1.61378
thorax -6.9684 -0.229867 4.86122
lowerneck -24.4635 -1.57896 -6.78572
upperneck 18.399 -0.773849 4.23143
head 9.91141 -0.336543 2.48989
rclavicle -1.59028e-015 4.77083e-015
rhumerus -56.1902 3.58905 -87.6346
rradius 104.105
rwrist -19.8114
rhand -12.0041 23.3057
rfingers 7.12502
rthumb 14.053 -6.19922
lclavicle -1.59028e-015 4.77083e-015
lhumerus -34.587 0.96269 90.1223
lradius 128.946
lwrist 30.7551
lhand -12.3754 8.99956
lfingers 7.12502
lthumb 13.6952 38.5289
rfemur -39.9472 -4.04445 23.0916
rtibia 67.3306
rfoot -10.6694 -1.52557
rtoes -6.1341
lfemur -1.99452 -4.55251 -23.3223
ltibia 36.3201
lfoot -9.00758 -0.563973
ltoes -28.14
